<?xml version="1.0" standalone="no"?>
<!DOCTYPE svg PUBLIC "-//W3C//DTD SVG 1.1//EN" "http://www.w3.org/Graphics/SVG/1.1/DTD/svg11.dtd" >
<svg xmlns="http://www.w3.org/2000/svg" xmlns:xlink="http://www.w3.org/1999/xlink" version="1.1">
<metadata></metadata>
<defs>
<font id="nimbussanlbold" horiz-adv-x="1139" >
<font-face units-per-em="2048" ascent="1599" descent="-449" />
<missing-glyph horiz-adv-x="569" />
<glyph horiz-adv-x="0" />
<glyph horiz-adv-x="682" />
<glyph unicode=" "  horiz-adv-x="569" />
<glyph unicode="&#x09;" horiz-adv-x="569" />
<glyph unicode="&#xa0;" horiz-adv-x="569" />
<glyph unicode="!" horiz-adv-x="682" d="M229 0v299h307v-299h-307zM229 1057v430h307v-430l-85 -633h-138z" />
<glyph unicode="&#x22;" horiz-adv-x="971" d="M102 1228v265h283v-265l-87 -265h-113zM585 1228v265h283v-265l-87 -265h-113z" />
<glyph unicode="#" d="M6 352v203h198l62 313h-203v203h243l70 356h215l-70 -356h211l70 356h216l-70 -356h184v-203h-224l-62 -313h204v-203h-244l-82 -418h-216l82 418h-210l-82 -418h-216l82 418h-158zM419 555h211l62 313h-210z" />
<glyph unicode="$" d="M45 403v21h267q11 -217 185 -249v437q-418 95 -418 435q0 222 178 332q97 59 240 72v112h138v-112q197 -14 305 -123q117 -122 117 -309h-262q0 113 -54 172q-44 46 -106 54v-413q170 -46 262 -104q180 -113 180 -328q0 -117 -46 -211t-130 -149q-101 -65 -266 -84v-215 h-138v215q-169 17 -275 94q-177 128 -177 353zM332 1056q0 -130 165 -182v371q-165 -33 -165 -189zM635 175q173 44 173 200q0 149 -173 203v-403z" />
<glyph unicode="%" horiz-adv-x="1821" d="M45 1062q0 158 110 265q113 109 271 109q151 0 262 -109q110 -109 110 -264q0 -154 -110 -264q-110 -109 -266 -109q-157 0 -267 109q-110 110 -110 263zM248 1062q0 -71 51 -121t123 -50t122 50q51 50 51 121q0 72 -51 121q-51 50 -125 50q-69 0 -120 -50t-51 -121z M429 -41l811 1492h157l-810 -1492h-158zM1015 347q0 158 110 265q113 109 271 109q150 0 261 -109q110 -109 110 -265q0 -154 -110 -264q-110 -109 -266 -109t-266 109q-110 110 -110 264zM1218 346q0 -70 51 -121q50 -50 122 -50t122 50q51 51 51 121q0 73 -51 122 q-51 50 -124 50q-70 0 -120 -50q-51 -50 -51 -122z" />
<glyph unicode="&#x26;" horiz-adv-x="1479" d="M113 394q0 192 140 311q65 55 181 116q-20 26 -82 100q-86 102 -86 217q0 73 34 142.5t94 116.5q105 84 259 84q165 0 270 -91q95 -84 95 -226q0 -146 -91 -241q-52 -55 -148 -122l237 -295q62 117 62 230q0 9 -1 27h233v-22q0 -105 -32 -212q-36 -123 -109 -215 l253 -314h-330l-94 115q-72 -53 -130 -88q-126 -74 -270 -74q-215 0 -352 123q-133 119 -133 318zM385 429q0 -84 59 -155q68 -83 159 -83q97 0 246 112l-280 351l-95 -62q-89 -57 -89 -163zM536 1159q0 -52 49 -115q19 -26 65 -81q122 69 122 177q0 54 -29 85 q-31 33 -89 33q-52 0 -85 -27q-33 -28 -33 -72z" />
<glyph unicode="'" horiz-adv-x="487" d="M102 1228v265h283v-265l-87 -265h-113z" />
<glyph unicode="(" horiz-adv-x="682" d="M82 542q0 346 176 684q71 136 158 267h205q-118 -226 -171 -364q-116 -301 -116 -587q0 -304 132 -627q48 -118 155 -325h-205q-102 153 -179 308q-155 312 -155 644z" />
<glyph unicode=")" horiz-adv-x="682" d="M45 -410q118 227 171 364q116 301 116 587q0 304 -132 627q-48 117 -155 325h205q102 -154 178 -308q156 -312 156 -644q0 -346 -177 -684q-70 -135 -157 -267h-205z" />
<glyph unicode="*" horiz-adv-x="797" d="M47 1187l45 142l222 -74v238h147v-238l222 74l46 -142l-223 -74l138 -192l-119 -88l-137 193l-138 -193l-119 88l138 192z" />
<glyph unicode="+" horiz-adv-x="1196" d="M102 352v244h373v373h244v-373h372v-244h-372v-372h-244v372h-373z" />
<glyph unicode="," horiz-adv-x="569" d="M131 0v299h307v-281q-1 -142 -31 -202q-48 -100 -172 -148q-47 -17 -104 -24v115q181 33 175 241h-175z" />
<glyph unicode="-" horiz-adv-x="682" d="M53 424v276h557v-276h-557z" />
<glyph unicode="." horiz-adv-x="569" d="M131 0v299h307v-299h-307z" />
<glyph unicode="/" horiz-adv-x="569" d="M4 -29l422 1492h137l-422 -1492h-137z" />
<glyph unicode="0" d="M59 719q0 412 123 579q136 185 383 185q153 0 271 -86q133 -98 183 -290q39 -148 39 -389q0 -413 -123 -580q-137 -185 -376 -185q-161 0 -278 86q-133 97 -183 289q-39 147 -39 391zM346 720q0 -311 45 -408q53 -113 167 -113q127 0 176 134q37 99 37 388q0 314 -45 414 q-53 116 -170 116q-124 0 -173 -138q-37 -102 -37 -393z" />
<glyph unicode="1" d="M139 1002v190q376 1 445 260h190v-1452h-287v1002h-348z" />
<glyph unicode="2" d="M61 0q7 156 53 266q45 103 129 181q42 39 153 119q177 126 248 192q67 61 96 120q28 58 28 140q0 108 -57 173q-53 60 -149 60q-111 0 -162 -80q-45 -73 -45 -178q0 -15 2 -46h-276q-2 36 -2 54q0 198 101 328q121 154 378 154q230 0 363 -125q134 -126 134 -336 q0 -173 -106 -300q-63 -77 -220 -191q-164 -121 -215 -168q-55 -53 -81 -107h615v-256h-987z" />
<glyph unicode="3" d="M59 426h278q13 -227 217 -227q107 0 167 75q49 62 49 144q0 67 -31 120.5t-85 81.5q-61 30 -165 30q-14 0 -45 -1v193h22q256 0 256 218q0 101 -54 148q-48 43 -126 43q-62 0 -108.5 -27.5t-67.5 -75.5q-19 -48 -22 -153h-266q0 151 35 237q50 127 177 194q110 57 259 57 q205 0 325 -97q64 -52 99.5 -130.5t35.5 -167.5q0 -131 -83 -224q-38 -42 -108 -86q239 -115 239 -360q0 -202 -128 -330q-135 -135 -379 -135q-297 0 -423 212q-66 113 -68 261z" />
<glyph unicode="4" d="M49 321v243l531 888h338v-893h151v-238h-151v-321h-287v321h-582zM253 559h378v621z" />
<glyph unicode="5" d="M55 378h282q9 -179 202 -179q106 0 167 70q65 74 65 204q0 123 -58 202t-175 79q-136 0 -183 -110h-259l129 808h776v-256h-601l-45 -302q116 86 251 86q207 0 332 -143q120 -137 120 -357q0 -194 -102 -330q-146 -197 -423 -197q-275 0 -407 190q-70 101 -71 235z" />
<glyph unicode="6" d="M66 689q0 261 48 410q64 200 201 298q121 86 289 86q137 0 244 -59q127 -70 169 -205q12 -37 22 -97h-266q-24 60 -51 85q-50 44 -128 44q-150 0 -209 -160q-24 -67 -31 -233l-1 -31q45 47 83 71q89 58 204 58q200 0 319 -146q104 -128 104 -326q0 -104 -31.5 -201.5 t-86.5 -165.5q-135 -165 -368 -165q-173 0 -302 99q-133 103 -178 295q-31 132 -31 343zM349 460q0 -111 54 -180q62 -82 166 -82q99 0 164 82q57 74 57 187q0 114 -52 182q-62 81 -170 81q-105 0 -165 -85q-54 -76 -54 -185z" />
<glyph unicode="7" d="M59 1196v256h1022v-224q-232 -280 -362 -560q-102 -224 -137 -471q-13 -94 -20 -197h-290q32 241 73 393q82 300 269 578q100 149 168 225h-723z" />
<glyph unicode="8" d="M45 419q0 168 104 276q44 47 135 96q-63 32 -95 62q-95 89 -95 235q0 181 146 293q131 102 321 102q189 0 321 -102q145 -112 145 -292q0 -150 -95 -237q-30 -27 -95 -61q102 -56 150 -113q88 -105 88 -259q0 -106 -44 -200.5t-122 -156.5q-137 -109 -349 -109t-349 109 q-81 64 -125 164q-41 90 -41 193zM332 434q0 -105 57 -166q65 -69 171 -69t171 69q57 60 57 167q0 108 -57 169q-66 71 -174 71q-103 0 -168 -71q-57 -63 -57 -170zM346 1063q0 -77 50 -130q61 -63 167 -63q105 0 166 63q50 53 50 129q0 78 -50 127q-63 62 -169 62 q-103 0 -164 -62q-50 -51 -50 -126z" />
<glyph unicode="9" d="M57 972q0 221 126 359q140 152 363 152q269 0 412 -237q99 -166 99 -484q0 -216 -46 -391q-55 -212 -175.5 -315t-312.5 -103q-246 0 -372 173q-71 97 -73 213h276q4 -50 35 -85q48 -55 142 -55q162 0 212 178q27 97 27 205v29q-58 -66 -90 -89q-74 -53 -188 -53 q-95 0 -182.5 41t-145.5 112q-107 133 -107 350zM330 976q0 -128 59 -200q57 -69 153 -69t158 69q64 71 64 199q0 131 -64 205q-61 71 -163 71q-93 0 -148 -71q-59 -76 -59 -204z" />
<glyph unicode=":" horiz-adv-x="682" d="M231 0v299h307v-299h-307zM231 766v299h307v-299h-307z" />
<glyph unicode=";" horiz-adv-x="682" d="M231 0v299h307v-281q-1 -142 -31 -202q-48 -100 -172 -148q-47 -17 -104 -24v115q181 33 175 241h-175zM231 766v299h307v-299h-307z" />
<glyph unicode="&#x3c;" horiz-adv-x="1196" d="M82 353v246l1001 372v-224l-782 -271l782 -270v-226z" />
<glyph unicode="=" horiz-adv-x="1196" d="M102 106v244h991v-244h-991zM102 598v244h991v-244h-991z" />
<glyph unicode="&#x3e;" horiz-adv-x="1196" d="M82 -20v223l782 272l-782 269v227l1001 -374v-246z" />
<glyph unicode="?" horiz-adv-x="1251" d="M131 985q3 233 95 356q136 183 403 183q233 0 375 -138q135 -133 135 -333q0 -126 -48 -208q-47 -82 -198 -190q-76 -54 -97 -79q-33 -40 -38 -104q-1 -21 -2 -61h-254q1 86 4 111q24 149 200 294q96 79 117 118q28 51 28 112q0 99 -60 167q-60 69 -154 69t-158 -70 q-69 -77 -69 -227h-279zM481 0v299h307v-299h-307z" />
<glyph unicode="@" horiz-adv-x="1997" d="M55 543q0 259 156 513q149 241 390 364q206 106 454 106q393 0 656 -256q228 -222 228 -542q0 -250 -168 -440q-153 -172 -345 -172q-103 0 -182 54q-51 34 -73 99q-48 -58 -109 -95q-100 -59 -198 -59q-150 0 -248 114q-88 101 -88 236q0 104 40 212.5t111 197.5 q70 87 172 138q97 48 202 48q112 0 180 -65q26 -26 53 -82l32 127h184l-158 -573q-16 -57 -16 -86q0 -44 24 -69q28 -30 75 -30q54 0 114 39.5t110 108.5q105 143 105 328q0 242 -201 421q-211 188 -510 188q-357 0 -582 -258q-100 -115 -155 -263t-55 -303q0 -311 242 -501 q211 -165 500 -165q147 0 310 42q49 13 115 41l56 -149q-204 -93 -484 -93q-196 0 -348.5 47t-279.5 147q-140 110 -220 264q-89 172 -89 366zM726 501q0 -77 37 -136q23 -38 63 -60.5t83 -22.5q44 0 94 26.5t87 69.5q57 68 91 154q38 98 38 185q0 81 -38 133 q-48 66 -138 66q-45 0 -97.5 -26t-91.5 -68q-59 -64 -93.5 -150.5t-34.5 -170.5z" />
<glyph unicode="A" horiz-adv-x="1479" d="M53 0l530 1493h341l515 -1493h-315l-99 301h-559l-100 -301h-313zM552 557h391l-195 583z" />
<glyph unicode="B" horiz-adv-x="1479" d="M168 0v1493h665q120 0 203.5 -26t149.5 -83q63 -55 99 -131t36 -154q0 -120 -79 -207q-43 -47 -125 -100q247 -145 247 -362q0 -128 -76 -241q-77 -113 -207 -157q-96 -32 -242 -32h-671zM475 256h366q228 0 228 193q0 194 -228 194h-366v-387zM475 899h335 q216 0 216 169t-216 169h-335v-338z" />
<glyph unicode="C" horiz-adv-x="1479" d="M90 734q0 358 177 565q187 219 506 219q200 0 350 -85q189 -106 248 -297q19 -60 26 -148h-294q-23 105 -68 160q-87 108 -251 108q-167 0 -260 -109q-127 -147 -127 -417q0 -229 90 -370q95 -149 287 -149q181 0 271 125q47 67 58 174h300q-12 -214 -137 -358 q-94 -107 -246 -159q-120 -40 -255 -40q-348 0 -530 260q-145 206 -145 521z" />
<glyph unicode="D" horiz-adv-x="1479" d="M158 0v1493h584q227 0 352 -72q171 -99 251 -341q50 -151 50 -333q0 -358 -181 -574q-89 -105 -217 -141q-110 -32 -255 -32h-584zM465 256h276q174 0 260.5 122.5t86.5 367.5q0 247 -86.5 369t-260.5 122h-276v-981z" />
<glyph unicode="E" horiz-adv-x="1366" d="M162 0v1493h1079v-256h-772v-338h715v-256h-715v-387h809v-256h-1116z" />
<glyph unicode="F" horiz-adv-x="1251" d="M152 0v1493h1049v-256h-742v-338h654v-256h-654v-643h-307z" />
<glyph unicode="G" horiz-adv-x="1593" d="M86 735q0 238 104 431q112 208 325 297q131 55 294 55q347 0 528 -217q100 -119 120 -285h-289q-36 100 -93 150q-103 90 -265 90q-187 0 -291 -120q-126 -144 -126 -397q0 -221 111 -363q125 -161 315 -161q107 0 199 54q161 93 180 278h-340v256h598v-807h-183l-38 196 q-70 -103 -151 -157q-122 -82 -299 -82q-299 0 -496 215q-97 107 -150 254.5t-53 312.5z" />
<glyph unicode="H" horiz-adv-x="1479" d="M139 0v1493h307v-559h591v559h308v-1493h-307v678h-592v-678h-307z" />
<glyph unicode="I" horiz-adv-x="569" d="M129 0v1493h307v-1493h-307z" />
<glyph unicode="J" d="M49 406v147h307v-144q0 -105 36 -146q42 -48 130 -48q166 0 166 175v1103h307v-1103q0 -228 -140 -337q-128 -100 -340 -100t-342 119q-74 68 -100 154q-24 77 -24 180z" />
<glyph unicode="K" horiz-adv-x="1479" d="M152 0v1493h307v-656l583 656h364l-597 -642l660 -851h-368l-489 660l-153 -161v-499h-307z" />
<glyph unicode="L" horiz-adv-x="1251" d="M164 0v1493h307v-1237h715v-256h-1022z" />
<glyph unicode="M" horiz-adv-x="1706" d="M135 0v1493h459l270 -1188l262 1188h463v-1493h-307v1163l-264 -1163h-308l-268 1163v-1163h-307z" />
<glyph unicode="N" horiz-adv-x="1479" d="M139 0v1493h315l592 -1015v1015h307v-1493h-307l-600 1032v-1032h-307z" />
<glyph unicode="O" horiz-adv-x="1593" d="M82 733q0 169 54.5 320t154.5 259q191 206 520 206q306 0 500 -206q98 -104 153 -255q56 -153 56 -322q0 -235 -105 -430q-103 -191 -286 -282q-141 -70 -328 -70q-317 0 -510 206q-98 105 -153 255q-56 152 -56 319zM389 735q0 -259 137 -406q106 -114 275 -114 q171 0 276 114q136 149 136 404q0 262 -136 409q-106 114 -281 114q-164 0 -270 -114q-137 -146 -137 -407z" />
<glyph unicode="P" horiz-adv-x="1366" d="M156 0v1493h659q232 0 358 -119q124 -118 124 -344q0 -252 -149 -388q-121 -110 -302 -110h-383v-532h-307zM463 788h286q136 0 192 66q49 56 49 159q0 102 -49 159q-56 65 -192 65h-286v-449z" />
<glyph unicode="Q" horiz-adv-x="1593" d="M88 736q0 236 105 430q94 173 250 262.5t364 89.5q317 0 510 -206q98 -105 153 -255q56 -152 56 -317q0 -247 -107 -443q-25 -46 -58 -86l165 -156l-157 -165l-176 166q-167 -103 -386 -103q-317 0 -510 206q-98 105 -153 255q-56 152 -56 322zM395 735q0 -259 137 -406 q106 -114 272 -114q105 0 182 38l-159 151l156 165l169 -160q67 139 67 324q0 262 -136 409q-106 114 -276 114q-169 0 -275 -114q-137 -147 -137 -407z" />
<glyph unicode="R" horiz-adv-x="1479" d="M164 0v1493h800q190 0 291 -103q112 -114 112 -301q0 -271 -253 -369q98 -38 147 -94q36 -43 46 -141q9 -104 14 -307q2 -53 18 -81q15 -23 48 -41v-56h-330q-30 56 -38 104q-8 53 -8 148q0 45 1 103q1 43 1 59q0 75 -26 112q-47 66 -164 66h-352v-592h-307zM471 848h370 q67 0 102 8.5t61 30.5q55 47 55 159q0 106 -56 152q-36 30 -83 35q-33 4 -79 4h-370v-389z" />
<glyph unicode="S" horiz-adv-x="1366" d="M66 446h299q7 -110 79 -172q86 -75 256 -75q139 0 225 56q77 49 77 144q0 103 -79 151q-66 41 -203 67l-207 39q-233 45 -327 138q-94 94 -94 264q0 249 186 367q146 93 378 93q330 0 483 -171q104 -115 105 -309h-287q-7 107 -75 165q-83 69 -239 69q-122 0 -194 -54 q-64 -47 -64 -130q0 -84 54 -121q63 -42 230 -74l233 -45q203 -39 298 -135q97 -98 97 -276q0 -215 -134 -333q-170 -151 -479 -151q-373 0 -527 213q-81 112 -91 280z" />
<glyph unicode="T" horiz-adv-x="1251" d="M29 1237v256h1196v-256h-435v-1237h-307v1237h-454z" />
<glyph unicode="U" horiz-adv-x="1479" d="M156 481v1012h307v-1012q0 -141 74 -203q75 -63 211 -63q137 0 211 63q74 62 74 203v1012h307v-1012q0 -244 -145 -376q-168 -152 -447 -152t-447 152q-145 132 -145 376z" />
<glyph unicode="V" horiz-adv-x="1366" d="M49 1493h308l332 -1125l326 1125h310l-512 -1493h-259z" />
<glyph unicode="W" horiz-adv-x="1933" d="M27 1493h325l233 -1119l230 1119h304l241 -1121l224 1121h325l-413 -1493h-277l-250 1165l-244 -1165h-277z" />
<glyph unicode="X" horiz-adv-x="1366" d="M45 0l471 752l-455 741h365l262 -491l275 491h355l-461 -732l480 -761h-365l-287 517l-284 -517h-356z" />
<glyph unicode="Y" horiz-adv-x="1366" d="M55 1493h342l306 -659l284 659h343l-472 -940v-553h-307v553z" />
<glyph unicode="Z" horiz-adv-x="1251" d="M61 0v256l763 981h-763v256h1122v-256l-763 -981h763v-256h-1122z" />
<glyph unicode="[" horiz-adv-x="682" d="M135 -410v1903h496v-209h-231v-1485h231v-209h-496z" />
<glyph unicode="\" horiz-adv-x="569" d="M-25 1463h137l479 -1492h-137z" />
<glyph unicode="]" horiz-adv-x="682" d="M37 -201h230v1485h-230v209h495v-1903h-495v209z" />
<glyph unicode="^" horiz-adv-x="1196" d="M125 553l338 870h256l350 -870h-231l-248 614l-235 -614h-230z" />
<glyph unicode="_" d="M-45 -246h1229v-141h-1229v141z" />
<glyph unicode="`" horiz-adv-x="682" d="M35 1550h258l143 -308h-143z" />
<glyph unicode="a" d="M55 285q0 293 327 349l114 19q106 17 128.5 22.5t52.5 21.5q49 26 49 84q0 112 -167 112q-130 0 -171 -55q-23 -31 -30 -97h-277q27 383 472 383q454 0 454 -341v-613q0 -51 21 -83q15 -25 45 -52v-35h-313q-20 27 -26 51q-5 20 -6 59q-152 -157 -337 -157 q-158 0 -257 105q-79 83 -79 227zM342 317q0 -60 39 -95q41 -38 117 -38q104 0 166 65t62 194v78q-38 -17 -120 -34l-100 -19q-87 -17 -121 -48q-43 -39 -43 -103z" />
<glyph unicode="b" horiz-adv-x="1251" d="M121 0v1493h287v-531q102 162 305 162q145 0 263 -91q105 -81 160 -240q42 -124 42 -255q0 -233 -124 -406q-60 -84 -150.5 -131.5t-191.5 -47.5q-202 0 -304 159v-112h-287zM407 537q0 -152 68 -250q65 -94 174 -94q110 0 173 94q69 102 69 249q0 152 -69 253 q-65 95 -177 95q-104 0 -170 -95q-68 -98 -68 -252z" />
<glyph unicode="c" d="M70 530q0 319 174 477q130 117 349 117q268 0 397 -189q68 -101 79 -242h-274q-21 93 -53 133q-53 67 -152 67q-127 0 -177 -94q-56 -103 -56 -269q0 -182 80 -280q55 -66 152 -66q107 0 161 80q25 37 45 118h274q-16 -160 -112 -273q-133 -156 -369 -156 q-282 0 -417 197q-101 146 -101 380z" />
<glyph unicode="d" horiz-adv-x="1251" d="M59 536q0 234 123 408q61 85 151.5 132.5t191.5 47.5q200 0 304 -162v531h287v-1493h-287v112q-104 -159 -305 -159q-144 0 -263 90q-105 81 -160 240q-42 122 -42 253zM346 537q0 -149 69 -250q64 -94 173 -94t174 94q68 99 68 249q0 155 -68 253q-66 95 -177 95 q-106 0 -170 -95q-69 -102 -69 -252z" />
<glyph unicode="e" d="M44 523q0 269 128 431q63 80 166 125q101 45 218 45q219 0 362 -140q158 -156 158 -468q0 -22 -2 -53h-742q5 -138 42 -195q61 -96 188 -96q97 0 161 57q36 32 56 83h283q-39 -135 -141 -225q-152 -134 -370 -134q-225 0 -362 142q-145 149 -145 428zM335 653h441 q-8 104 -45 159q-63 93 -178 93q-190 0 -218 -252z" />
<glyph unicode="f" horiz-adv-x="682" d="M29 893v190h157v133q0 136 69 208q67 69 212 69q68 0 165 -6v-215q-42 6 -81 6q-78 0 -78 -87v-108h168v-190h-168v-893h-287v893h-157z" />
<glyph unicode="g" horiz-adv-x="1251" d="M70 525q0 292 167 470q57 60 134.5 94.5t157.5 34.5q182 0 306 -188v170h273v-1142q0 -210 -161 -319q-134 -91 -365 -91q-252 0 -382 106q-105 87 -109 207h297q14 -51 43 -76q61 -53 161 -53q108 0 178 66q65 61 65 159v150q-65 -74 -112 -104q-87 -56 -201 -56 q-157 0 -267 95q-185 159 -185 477zM357 529q0 -146 63 -242q62 -94 169 -94q112 0 181 94q70 96 70 241q0 154 -70 255t-184 101q-104 0 -166 -101q-63 -103 -63 -254z" />
<glyph unicode="h" horiz-adv-x="1251" d="M137 0v1493h287v-548q53 81 111 119q93 60 212 60q148 0 248 -84q113 -95 113 -298v-742h-287v675q0 90 -34 138q-47 67 -141 67q-86 0 -147 -48q-75 -61 -75 -168v-664h-287z" />
<glyph unicode="i" horiz-adv-x="569" d="M137 0v1106h287v-1106h-287zM137 1237v256h287v-256h-287z" />
<glyph unicode="j" horiz-adv-x="569" d="M8 -205q26 -9 51 -9q39 0 61 16q23 17 23 70v1234h287v-1299q0 -155 -81 -214q-55 -39 -172 -39q-70 0 -169 10v231zM143 1237v256h287v-256h-287z" />
<glyph unicode="k" d="M121 0v1493h287v-817l362 430h326l-377 -418l404 -688h-337l-264 487l-114 -124v-363h-287z" />
<glyph unicode="l" horiz-adv-x="569" d="M137 0v1493h287v-1493h-287z" />
<glyph unicode="m" horiz-adv-x="1821" d="M123 0v1106h285v-137q54 65 98 95q88 60 206 60q129 0 214 -65q58 -45 85 -98q54 69 117 110q85 53 207 53q169 0 262 -94q91 -91 91 -247v-783h-287v736q0 70 -47 110q-41 35 -109 35q-92 0 -144 -58q-52 -59 -52 -159v-664h-287v736q0 69 -46 110q-38 34 -109 34 q-94 0 -145 -58q-52 -59 -52 -158v-664h-287z" />
<glyph unicode="n" horiz-adv-x="1251" d="M129 0v1106h287v-161q53 81 111 119q93 60 220 60q158 0 258 -84q113 -96 113 -298v-742h-287v682q0 198 -184 198q-95 0 -156 -48q-75 -61 -75 -168v-664h-287z" />
<glyph unicode="o" horiz-adv-x="1251" d="M72 536q0 259 126 409q149 179 429 179q264 0 413 -179q126 -150 126 -407q0 -253 -126 -406q-147 -179 -421 -179q-275 0 -421 179q-126 153 -126 404zM359 538q0 -152 67 -251q31 -47 83.5 -75t109.5 -28t109.5 28t83.5 75q67 100 67 250q0 154 -67 253 q-69 103 -196 103q-55 0 -107 -28t-83 -75q-67 -99 -67 -252z" />
<glyph unicode="p" horiz-adv-x="1251" d="M119 -446v1552h287v-163q102 182 308 182q140 0 260 -89q107 -80 160 -238q42 -124 42 -260q0 -241 -122 -410q-59 -80 -150 -128q-92 -48 -191 -48q-204 0 -307 179v-577h-287zM405 537q0 -153 68 -250q65 -95 174 -95t174 95q68 98 68 249q0 156 -68 253 q-66 96 -177 96q-106 0 -171 -96q-68 -98 -68 -252z" />
<glyph unicode="q" horiz-adv-x="1251" d="M57 537q0 241 122 411q58 80 150 129q92 48 191 48q206 0 307 -182v163h287v-1552h-287v577q-102 -179 -309 -179q-138 0 -259 89q-107 79 -160 236q-42 124 -42 260zM344 537q0 -152 68 -250q65 -95 174 -95q108 0 173 95q67 97 67 249q0 157 -67 253q-66 96 -177 96 q-105 0 -170 -96q-68 -99 -68 -252z" />
<glyph unicode="r" horiz-adv-x="797" d="M129 0v1106h287v-217q41 99 109 157q89 78 199 78q15 0 34 -2v-290q-50 8 -89 8q-253 0 -253 -252v-588h-287z" />
<glyph unicode="s" d="M59 322h281q15 -77 55 -105q56 -39 170 -39q103 0 162 32q51 27 51 76q0 39 -32 63q-18 14 -64 28l-342 108q-96 30 -131 51q-111 70 -111 220q0 91 40 168t111 123q118 77 303 77q267 0 394 -139q85 -93 88 -235h-278q-1 149 -205 149q-80 0 -126 -31q-40 -27 -40 -72 q0 -41 32 -59q20 -11 69 -25l362 -106q217 -63 217 -277q0 -82 -34.5 -155t-96.5 -122q-124 -99 -352 -99q-293 0 -421 123q-97 93 -102 246z" />
<glyph unicode="t" horiz-adv-x="682" d="M29 893v190h142v297h287v-297h159v-190h-159v-603q0 -76 20 -98t73 -22q30 0 66 6v-200q-74 -23 -167 -23q-279 0 -279 261v679h-142z" />
<glyph unicode="u" horiz-adv-x="1251" d="M119 336v770h287v-710q0 -199 184 -199q95 0 156 48q75 61 75 169v692h287v-1106h-287v132q-53 -81 -111 -119q-94 -60 -220 -60q-158 0 -258 84q-113 96 -113 299z" />
<glyph unicode="v" d="M29 1106h304l238 -810l225 810h302l-381 -1106h-301z" />
<glyph unicode="w" horiz-adv-x="1593" d="M10 1106h297l175 -774l169 774h287l165 -774l169 774h297l-314 -1106h-296l-167 780l-175 -780h-295z" />
<glyph unicode="x" d="M33 0l369 558l-361 548h345l179 -335l179 335h344l-362 -548l370 -558h-344l-187 344l-188 -344h-344z" />
<glyph unicode="y" d="M18 1106h315l245 -806l229 806h295l-456 -1307q-40 -115 -77 -156q-84 -92 -290 -92q-47 0 -103 9v216q47 -13 76 -13q107 0 156 90q22 42 22 102z" />
<glyph unicode="z" horiz-adv-x="1024" d="M43 0v231l546 644h-510v231h861v-231l-543 -644h561v-231h-915z" />
<glyph unicode="{" horiz-adv-x="797" d="M76 456v188q7 0 34 1q134 0 132 130v432q1 119 65 198q72 87 187 88h155v-202h-75q-95 1 -92 -116v-400q-1 -101 -32 -144q-35 -49 -94 -67q-25 -7 -73 -14q91 -13 129 -41q36 -27 53 -67q17 -44 17 -117v-399q0 -65 8 -82q24 -51 84 -52h75v-202h-155q-115 1 -187 88 q-64 77 -65 198v432q-1 77 -21 102q-33 42 -101 45q-29 0 -44 1z" />
<glyph unicode="|" horiz-adv-x="573" d="M205 -410v1903h164v-1903h-164z" />
<glyph unicode="}" horiz-adv-x="797" d="M147 -208h76q95 -1 92 116v400q1 101 32 144q34 49 94 67q25 7 73 14q-91 13 -129 41q-36 27 -53 67q-17 44 -17 117v399q0 64 -9 82q-23 51 -83 52h-76v202h156q115 -1 187 -88q64 -77 65 -198v-431q1 -78 21 -103q33 -42 101 -45q29 0 43 -1v-188q-7 0 -33 -1 q-134 0 -132 -130v-432q-1 -119 -65 -198q-72 -87 -187 -88h-156v202z" />
<glyph unicode="~" horiz-adv-x="1196" d="M123 345q17 298 261 298q97 0 168 -52l118 -87q68 -50 125 -50q74 0 97 56q8 18 12 79h159q-9 -154 -71 -222q-70 -77 -190 -77q-96 0 -168 53l-118 87q-66 49 -125 49q-74 0 -97 -55q-8 -18 -12 -79h-159z" />
<glyph unicode="&#xa1;" horiz-adv-x="682" d="M135 49l85 633h138l84 -633v-430h-307v430zM135 807v299h307v-299h-307z" />
<glyph unicode="&#xa2;" d="M76 530q0 249 106 401q115 166 350 190v177h90v-174q147 -6 249 -72q127 -83 176 -235q18 -57 23 -124h-275q-24 113 -78 159q-39 32 -95 39v-705q60 7 102 47q45 43 71 149h275q-15 -195 -160 -321q-117 -99 -288 -108v-207h-90v209q-92 6 -175 43q-165 73 -236 255 q-45 115 -45 277zM363 532q0 -140 46 -235q39 -81 123 -105v695q-53 -13 -90 -53q-42 -45 -63 -144q-16 -75 -16 -158z" />
<glyph unicode="&#xa3;" d="M63 163q73 49 120 92q105 94 105 217q0 68 -43 174h-182v113h123q-37 65 -54 98q-54 106 -54 200q0 125 80 232q131 175 407 175q197 0 321 -85q133 -91 166 -268q9 -47 15 -120h-268l-4 23q-11 86 -32 122q-61 101 -197 101q-83 0 -135 -44q-65 -55 -65 -141 q0 -39 20 -86q6 -14 35 -73q48 -99 62 -134h284v-113h-249q30 -68 30 -120q0 -121 -105 -233q-51 -53 -131 -118q46 24 83 40q84 37 144 37q41 0 131 -23q78 -20 131 -20q97 0 214 60l84 -224q-158 -92 -296 -92q-73 0 -204 33q-129 32 -200 32q-104 0 -224 -62z" />
<glyph unicode="&#xa4;" d="M53 1097l141 140l158 -158q100 65 224 65q123 0 218 -63l151 150l140 -141l-154 -154q57 -109 57 -211q0 -117 -60 -220l157 -156l-141 -140l-155 153q-70 -37 -108.5 -48.5t-94.5 -11.5q-136 0 -229 62l-160 -159l-141 140l160 160q-60 108 -60 216q0 120 58 215z M352 723q0 -91 64 -156q65 -64 156 -64t155 64q65 65 65 156q0 93 -65 156q-66 64 -158 64q-88 0 -153 -64q-64 -64 -64 -156z" />
<glyph unicode="&#xa5;" d="M10 1442h286l283 -521l274 521h277l-393 -723h280v-121h-290v-108h290v-121h-290v-369h-287v369h-296v121h296v108h-296v121h281z" />
<glyph unicode="&#xa6;" horiz-adv-x="573" d="M205 387h164v-797h-164v797zM205 696v797h164v-797h-164z" />
<glyph unicode="&#xa7;" d="M68 575q0 118 74 203q31 35 115 99q-57 56 -71 75q-55 73 -55 177q0 153 123 254q118 98 305 98q144 0 248 -58q117 -65 149 -195q11 -43 14 -114h-260q-21 158 -160 158q-61 0 -96 -28q-36 -28 -36 -75q0 -57 59 -99q47 -35 125 -78l261 -143q113 -63 159 -146 q39 -72 39 -166q0 -127 -70 -202q-41 -43 -121 -81q143 -102 143 -275q0 -150 -96 -256q-121 -135 -352 -135q-429 0 -431 412h268l1 -20q3 -87 38 -121q45 -44 128 -44q57 0 101 28q55 35 55 98q0 56 -38 92q-21 20 -108 66l-350 206q-161 95 -161 270zM311 650 q0 -58 36 -95q21 -20 74 -50l300 -163q33 24 55 46q39 41 39 89q0 52 -36 90q-23 24 -89 59l-293 155q-86 -50 -86 -131z" />
<glyph unicode="&#xa8;" horiz-adv-x="682" d="M37 1271v250h225v-250h-225zM418 1271v250h225v-250h-225z" />
<glyph unicode="&#xa9;" horiz-adv-x="1509" d="M-29 737q0 222 115 411q113 186 313 289q167 85 365 85q211 0 400 -116t289 -312q85 -167 85 -355q0 -156 -59.5 -300t-169.5 -254q-110 -111 -254.5 -170.5t-299.5 -59.5q-156 0 -300 60t-254 170t-170 254t-60 298zM131 739q0 -126 48 -243t135 -207 q88 -89 202.5 -137.5t237.5 -48.5q124 0 238.5 48.5t202.5 137.5t135.5 206t47.5 242q0 128 -48 246.5t-135 204.5q-187 186 -448 186q-119 0 -232 -48.5t-201 -137.5q-87 -89 -135 -206t-48 -243zM334 737q0 216 108 342q114 134 308 134q211 0 319 -144q54 -71 62 -186 h-184q-35 160 -190 160q-101 0 -157 -63q-77 -87 -77 -245q0 -135 55 -217q57 -86 172 -86q108 0 161 71q29 39 35 106h188q-7 -137 -84 -225q-106 -122 -304 -122q-213 0 -324 158q-88 126 -88 317z" />
<glyph unicode="&#xaa;" horiz-adv-x="758" d="M63 993q0 176 196 209l68 12q85 14 108 26q30 16 30 50q0 64 -100 64q-76 0 -102 -34q-14 -18 -19 -57h-161q5 230 278 230q272 0 272 -205v-367q0 -45 40 -81v-21h-187q-19 24 -20 66q-90 -94 -201 -94q-95 0 -155 63q-47 50 -47 139zM76 536v160h580v-160h-580z M235 1010q0 -80 94 -80q62 0 99 39t37 116v46q-23 -10 -72 -20l-60 -12q-52 -10 -72 -28q-26 -23 -26 -61z" />
<glyph unicode="&#xab;" d="M180 447v233l342 305v-240l-207 -182l207 -182v-234zM616 447v233l342 305v-240l-207 -182l207 -182v-234z" />
<glyph unicode="&#xac;" horiz-adv-x="1196" d="M82 609v158h1032v-591h-158v433h-874z" />
<glyph unicode="&#xad;" horiz-adv-x="682" d="M53 424v276h557v-276h-557z" />
<glyph unicode="&#xae;" horiz-adv-x="1509" d="M-29 737q0 222 115 411q113 186 313 289q167 85 365 85q211 0 400 -116t289 -312q85 -167 85 -355q0 -156 -59.5 -300t-169.5 -254q-110 -111 -254.5 -170.5t-299.5 -59.5q-156 0 -300 60t-254 170t-170 254t-60 298zM131 739q0 -126 48 -243t135 -207 q88 -89 202.5 -137.5t237.5 -48.5q124 0 238.5 48.5t202.5 137.5t135.5 206t47.5 242q0 128 -48 246.5t-135 204.5q-187 186 -448 186q-119 0 -232 -48.5t-201 -137.5q-87 -89 -135 -206t-48 -243zM394 287v908h486q120 0 181 -63q67 -69 67 -185q0 -149 -142 -221 q95 -41 103 -118q8 -59 12 -208q1 -50 39 -70v-43h-209q-20 37 -25 68q-5 32 -5 97v54q1 30 1 35q0 101 -124 101h-187v-355h-197zM591 808h209q72 0 102 22q31 24 31 89q0 64 -31 88q-30 22 -102 22h-209v-221z" />
<glyph unicode="&#xaf;" d="M-45 1739v141h1229v-141h-1229z" />
<glyph unicode="&#xb0;" horiz-adv-x="1241" d="M309 1094q0 131 91 220q93 91 223 91q125 0 216 -91q91 -90 91 -220q0 -128 -91 -219t-220 -91q-128 0 -219 91t-91 219zM439 1094q0 -74 53 -127t128 -53q74 0 127 53t53 127q0 77 -53 128q-54 53 -130 53q-72 0 -125 -53t-53 -128z" />
<glyph unicode="&#xb1;" horiz-adv-x="1196" d="M115 -33v244h965v-244h-965zM115 641v244h360v360h244v-360h361v-244h-361v-360h-244v360h-360z" />
<glyph unicode="&#xb2;" horiz-adv-x="719" d="M33 582q5 102 34 166q29 63 83 109q27 24 97 71q112 75 155 113q76 64 76 150q0 59 -34 95q-32 34 -90 34q-66 0 -96 -45q-27 -41 -27 -100q0 -11 2 -35h-188q-1 25 -1 38q0 120 65 199q79 94 254 94q151 0 228 -70q81 -73 81 -205q0 -109 -68 -186q-40 -45 -140 -114 q-102 -70 -121 -87q-22 -18 -57 -62h382v-165h-635z" />
<glyph unicode="&#xb3;" horiz-adv-x="719" d="M32 847h188q7 -134 133 -134q63 0 98 42q30 34 30 80q0 130 -177 130h-29v128q17 -1 24 -1q152 0 152 118q0 54 -33 84q-29 26 -75 26q-79 0 -104 -57q-12 -27 -14 -94h-180q7 136 59 201q80 100 245 100q128 0 208 -59q88 -64 88 -181q0 -114 -106 -181 q136 -67 136 -213q0 -122 -83 -200q-86 -82 -244 -82q-197 0 -273 127q-44 71 -43 166z" />
<glyph unicode="&#xb4;" horiz-adv-x="682" d="M248 1242l143 308h258l-258 -308h-143z" />
<glyph unicode="&#xb5;" horiz-adv-x="1251" d="M119 -451v1557h287v-683q0 -105 36 -158q47 -68 137 -68q77 0 132 45q74 61 74 172v692h287v-798q0 -69 6 -101q10 -49 54 -49q18 0 42 8v-177q-64 -36 -144 -36q-94 0 -147 49q-22 21 -46 63q-56 -57 -100 -80q-62 -32 -138 -32q-121 0 -206 77v-481h-274z" />
<glyph unicode="&#xb6;" d="M41 1013q0 176 104 318q119 162 319 162h619v-148h-88v-1735h-201v1735h-127v-1735h-201v937q-158 9 -273 106q-76 65 -116 169q-36 93 -36 191z" />
<glyph unicode="&#xb7;" horiz-adv-x="569" d="M131 346v252h254v-252h-254z" />
<glyph unicode="&#xb8;" horiz-adv-x="682" d="M55 -392l39 106q138 -63 214 -63q34 0 63 13q54 25 54 72q0 29 -24 49q-28 23 -80 23q-50 0 -101 -25l112 217h88l-60 -128q42 13 86 13q69 0 110 -35q46 -41 46 -110q0 -94 -68 -142q-69 -49 -194 -49q-118 0 -285 59z" />
<glyph unicode="&#xb9;" horiz-adv-x="719" d="M82 1173v126q242 -2 282 153h132v-870h-194v591h-220z" />
<glyph unicode="&#xba;" horiz-adv-x="748" d="M47 1141q0 155 75 245q90 107 257 107q159 0 248 -107q75 -90 75 -244q0 -152 -75 -244q-88 -107 -252 -107q-165 0 -253 107q-75 92 -75 243zM67 536v160h616v-160h-616zM219 1142q0 -91 40 -150q41 -62 116 -62q74 0 115 62q40 60 40 149q0 92 -40 152q-41 61 -118 61 q-72 0 -113 -61q-40 -60 -40 -151z" />
<glyph unicode="&#xbb;" d="M180 147v240l207 182l-207 182v234l342 -300v-233zM604 147v240l207 182l-207 182v234l342 -300v-233z" />
<glyph unicode="&#xbc;" horiz-adv-x="1780" d="M82 1173v126q242 -2 281 153h132v-870h-194v591h-219zM348 -41l867 1505h178l-867 -1505h-178zM1085 190v152l338 528h223v-526h95v-154h-95v-190h-194v190h-367zM1236 344h216v336z" />
<glyph unicode="&#xbd;" horiz-adv-x="1780" d="M82 1173v126q242 -2 281 153h132v-870h-194v591h-219zM336 -41l866 1505h178l-866 -1505h-178zM1093 0q5 102 34 166q29 63 83 109q27 25 97 72q112 75 155 112q76 64 76 148q0 61 -34 98q-32 33 -90 33q-66 0 -96 -44q-27 -41 -27 -100q0 -11 2 -35h-188q-1 26 -1 38 q0 120 65 198q79 94 254 94q149 0 228 -70q81 -72 81 -204q0 -109 -68 -187q-39 -45 -140 -114q-102 -70 -121 -87q-22 -17 -57 -62h382v-165h-635z" />
<glyph unicode="&#xbe;" horiz-adv-x="1780" d="M32 847h188q7 -134 133 -134q63 0 98 42q30 34 30 80q0 130 -177 130h-29v128q17 -1 24 -1q152 0 152 118q0 54 -33 84q-29 26 -75 26q-79 0 -104 -57q-12 -27 -14 -94h-180q7 136 59 201q80 100 245 100q128 0 208 -59q88 -64 88 -181q0 -114 -106 -181 q136 -67 136 -213q0 -122 -83 -200q-86 -82 -244 -82q-197 0 -273 127q-44 71 -43 166zM415 -41l866 1505h178l-866 -1505h-178zM1086 190v152l338 528h223v-526h95v-154h-95v-190h-194v190h-367zM1237 344h216v336z" />
<glyph unicode="&#xbf;" horiz-adv-x="1251" d="M104 54q0 125 48 207t199 190q76 54 97 78q33 41 38 105q2 21 2 61h254q-1 -86 -4 -111q-24 -150 -201 -294q-96 -79 -117 -118q-28 -51 -28 -112q0 -99 60 -167q62 -69 156 -69q95 0 158 70q69 78 69 227h279q-4 -233 -96 -356q-135 -183 -402 -183q-233 0 -376 139 q-136 132 -136 333zM456 807v299h307v-299h-307z" />
<glyph unicode="&#xc0;" horiz-adv-x="1479" d="M53 0l530 1493h341l515 -1493h-315l-99 301h-559l-100 -301h-313zM453 1917h258l143 -307h-143zM552 557h391l-195 583z" />
<glyph unicode="&#xc1;" horiz-adv-x="1479" d="M53 0l530 1493h341l515 -1493h-315l-99 301h-559l-100 -301h-313zM552 557h391l-195 583zM642 1610l143 307h258l-258 -307h-143z" />
<glyph unicode="&#xc2;" horiz-adv-x="1479" d="M53 0l530 1493h341l515 -1493h-315l-99 301h-559l-100 -301h-313zM421 1610l220 307h220l211 -307h-159l-168 205l-168 -205h-156zM552 557h391l-195 583z" />
<glyph unicode="&#xc3;" horiz-adv-x="1479" d="M53 0l530 1493h341l515 -1493h-315l-99 301h-559l-100 -301h-313zM394 1638q4 94 43 166q48 89 150 89q40 0 114 -26l146 -52q39 -14 70 -14q62 0 74 100h128q-14 -262 -194 -262q-45 0 -113 25l-145 54q-35 13 -63 13q-67 0 -82 -93h-128zM552 557h391l-195 583z" />
<glyph unicode="&#xc4;" horiz-adv-x="1479" d="M53 0l530 1493h341l515 -1493h-315l-99 301h-559l-100 -301h-313zM443 1638v250h225v-250h-225zM552 557h391l-195 583zM824 1638v250h225v-250h-225z" />
<glyph unicode="&#xc5;" horiz-adv-x="1479" d="M53 0l530 1493h341l515 -1493h-315l-99 301h-559l-100 -301h-313zM552 557h391l-195 583zM562 1760q0 77 54 130q54 54 135 54q74 0 126 -54q54 -55 54 -130q0 -76 -54 -130t-130 -54q-77 0 -131 54t-54 130zM660 1761q0 -36 26 -62q25 -25 62 -25q36 0 60 25 q25 26 25 62t-25 60q-25 25 -61 25q-35 0 -61 -25t-26 -60z" />
<glyph unicode="&#xc6;" horiz-adv-x="2048" d="M2 0l538 1493h1398v-255h-750v-339h694v-256h-694v-387h790v-256h-1097v311h-457l-108 -311h-314zM510 567h371v670h-137z" />
<glyph unicode="&#xc7;" horiz-adv-x="1479" d="M90 734q0 358 177 565q187 219 506 219q200 0 350 -85q189 -106 248 -297q19 -60 26 -148h-294q-23 105 -68 160q-87 108 -251 108q-167 0 -260 -109q-127 -147 -127 -417q0 -229 90 -370q95 -149 287 -149q181 0 271 125q47 67 58 174h300q-10 -268 -207 -424 q-159 -126 -421 -134l-38 -80q43 13 87 13q68 0 109 -35q46 -41 46 -110q0 -94 -68 -142q-69 -49 -194 -49q-118 0 -285 59l39 106q137 -63 214 -63q34 0 63 13q54 25 54 72q0 29 -24 49q-28 23 -80 23q-51 0 -101 -26l88 172q-142 25 -217.5 58t-149.5 103 q-228 217 -228 619z" />
<glyph unicode="&#xc8;" horiz-adv-x="1366" d="M162 0v1493h1079v-256h-772v-338h715v-256h-715v-387h809v-256h-1116zM426 1917h258l143 -307h-143z" />
<glyph unicode="&#xc9;" horiz-adv-x="1366" d="M162 0v1493h1079v-256h-772v-338h715v-256h-715v-387h809v-256h-1116zM582 1610l143 307h258l-258 -307h-143z" />
<glyph unicode="&#xca;" horiz-adv-x="1366" d="M162 0v1493h1079v-256h-772v-338h715v-256h-715v-387h809v-256h-1116zM381 1610l220 307h220l211 -307h-159l-168 205l-168 -205h-156z" />
<glyph unicode="&#xcb;" horiz-adv-x="1366" d="M162 0v1493h1079v-256h-772v-338h715v-256h-715v-387h809v-256h-1116zM403 1638v250h225v-250h-225zM784 1638v250h225v-250h-225z" />
<glyph unicode="&#xcc;" horiz-adv-x="569" d="M-20 1917h258l143 -307h-143zM130 0v1493h307v-1493h-307z" />
<glyph unicode="&#xcd;" horiz-adv-x="569" d="M129 0v1493h307v-1493h-307zM192 1610l143 307h258l-258 -307h-143z" />
<glyph unicode="&#xce;" horiz-adv-x="569" d="M-39 1610l220 307h220l211 -307h-159l-168 205l-168 -205h-156zM129 0v1493h307v-1493h-307z" />
<glyph unicode="&#xcf;" horiz-adv-x="569" d="M-18 1638v250h225v-250h-225zM129 0v1493h307v-1493h-307zM363 1638v250h225v-250h-225z" />
<glyph unicode="&#xd0;" horiz-adv-x="1479" d="M0 694v164h158v635h584q232 0 355 -72q163 -96 245 -341q53 -158 53 -333q0 -166 -47.5 -317t-133.5 -257q-86 -105 -212 -141q-111 -32 -260 -32h-584v694h-158zM465 256h276q135 0 205 49q85 61 124 198q30 103 30 243q0 245 -94 380q-45 64 -111 89q-62 22 -154 22 h-276v-379h307v-164h-307v-438z" />
<glyph unicode="&#xd1;" horiz-adv-x="1479" d="M139 0v1493h315l592 -1015v1015h307v-1493h-307l-600 1032v-1032h-307zM397 1638q4 94 43 166q48 89 150 89q40 0 114 -26l146 -52q39 -14 70 -14q62 0 74 100h128q-14 -262 -194 -262q-45 0 -113 25l-145 54q-35 13 -63 13q-67 0 -82 -93h-128z" />
<glyph unicode="&#xd2;" horiz-adv-x="1593" d="M82 733q0 169 54.5 320t154.5 259q191 206 520 206q306 0 500 -206q98 -104 153 -255q56 -153 56 -322q0 -235 -105 -430q-103 -191 -286 -282q-141 -70 -328 -70q-317 0 -510 206q-98 105 -153 255q-56 152 -56 319zM389 735q0 -259 137 -406q106 -114 275 -114 q171 0 276 114q136 149 136 404q0 262 -136 409q-106 114 -281 114q-164 0 -270 -114q-137 -146 -137 -407zM521 1917h258l143 -307h-143z" />
<glyph unicode="&#xd3;" horiz-adv-x="1593" d="M82 733q0 169 54.5 320t154.5 259q191 206 520 206q306 0 500 -206q98 -104 153 -255q56 -153 56 -322q0 -235 -105 -430q-103 -191 -286 -282q-141 -70 -328 -70q-317 0 -510 206q-98 105 -153 255q-56 152 -56 319zM389 735q0 -259 137 -406q106 -114 275 -114 q171 0 276 114q136 149 136 404q0 262 -136 409q-106 114 -281 114q-164 0 -270 -114q-137 -146 -137 -407zM683 1610l143 307h258l-258 -307h-143z" />
<glyph unicode="&#xd4;" horiz-adv-x="1593" d="M82 733q0 169 54.5 320t154.5 259q191 206 520 206q306 0 500 -206q98 -104 153 -255q56 -153 56 -322q0 -235 -105 -430q-103 -191 -286 -282q-141 -70 -328 -70q-317 0 -510 206q-98 105 -153 255q-56 152 -56 319zM389 735q0 -259 137 -406q106 -114 275 -114 q171 0 276 114q136 149 136 404q0 262 -136 409q-106 114 -281 114q-164 0 -270 -114q-137 -146 -137 -407zM475 1610l220 307h220l211 -307h-159l-168 205l-168 -205h-156z" />
<glyph unicode="&#xd5;" horiz-adv-x="1593" d="M82 733q0 169 54.5 320t154.5 259q191 206 520 206q306 0 500 -206q98 -104 153 -255q56 -153 56 -322q0 -235 -105 -430q-103 -191 -286 -282q-141 -70 -328 -70q-317 0 -510 206q-98 105 -153 255q-56 152 -56 319zM389 735q0 -259 137 -406q106 -114 275 -114 q171 0 276 114q136 149 136 404q0 262 -136 409q-106 114 -281 114q-164 0 -270 -114q-137 -146 -137 -407zM452 1638q4 94 43 166q48 89 150 89q40 0 114 -26l146 -52q39 -14 70 -14q62 0 74 100h128q-14 -262 -194 -262q-45 0 -113 25l-145 54q-35 13 -63 13 q-67 0 -82 -93h-128z" />
<glyph unicode="&#xd6;" horiz-adv-x="1593" d="M82 733q0 169 54.5 320t154.5 259q191 206 520 206q306 0 500 -206q98 -104 153 -255q56 -153 56 -322q0 -235 -105 -430q-103 -191 -286 -282q-141 -70 -328 -70q-317 0 -510 206q-98 105 -153 255q-56 152 -56 319zM389 735q0 -259 137 -406q106 -114 275 -114 q171 0 276 114q136 149 136 404q0 262 -136 409q-106 114 -281 114q-164 0 -270 -114q-137 -146 -137 -407zM498 1638v250h225v-250h-225zM879 1638v250h225v-250h-225z" />
<glyph unicode="&#xd7;" horiz-adv-x="1196" d="M162 736l172 172l264 -263l264 265l172 -172l-264 -265l263 -264l-172 -172l-263 263l-262 -262l-172 173l261 262z" />
<glyph unicode="&#xd8;" horiz-adv-x="1593" d="M63 14l176 195q-167 225 -167 526q0 237 105 430q95 174 251 263t366 89q218 0 374 -96q50 -31 101 -75l171 188l106 -93l-183 -201q71 -96 111 -231.5t40 -277.5q0 -232 -106 -427q-103 -191 -286 -282q-141 -70 -328 -70q-278 0 -457 155l-170 -188zM380 729 q0 -170 57 -302l644 711q-114 118 -287 118q-171 0 -277 -114q-137 -148 -137 -413zM524 313q100 -98 269 -98t276 114q137 147 137 410q0 154 -44 278z" />
<glyph unicode="&#xd9;" horiz-adv-x="1479" d="M156 481v1012h307v-1012q0 -141 74 -203q75 -63 211 -63q137 0 211 63q74 62 74 203v1012h307v-1012q0 -244 -145 -376q-168 -152 -447 -152t-447 152q-145 132 -145 376zM468 1917h258l143 -307h-143z" />
<glyph unicode="&#xda;" horiz-adv-x="1479" d="M156 481v1012h307v-1012q0 -141 74 -203q75 -63 211 -63q137 0 211 63q74 62 74 203v1012h307v-1012q0 -244 -145 -376q-168 -152 -447 -152t-447 152q-145 132 -145 376zM630 1610l143 307h258l-258 -307h-143z" />
<glyph unicode="&#xdb;" horiz-adv-x="1479" d="M156 481v1012h307v-1012q0 -141 74 -203q75 -63 211 -63q137 0 211 63q74 62 74 203v1012h307v-1012q0 -244 -145 -376q-168 -152 -447 -152t-447 152q-145 132 -145 376zM422 1610l220 307h220l211 -307h-159l-168 205l-168 -205h-156z" />
<glyph unicode="&#xdc;" horiz-adv-x="1479" d="M156 481v1012h307v-1012q0 -141 74 -203q75 -63 211 -63q137 0 211 63q74 62 74 203v1012h307v-1012q0 -244 -145 -376q-168 -152 -447 -152t-447 152q-145 132 -145 376zM445 1638v250h225v-250h-225zM826 1638v250h225v-250h-225z" />
<glyph unicode="&#xdd;" horiz-adv-x="1366" d="M55 1493h342l306 -659l284 659h343l-472 -940v-553h-307v553zM582 1610l143 307h258l-258 -307h-143z" />
<glyph unicode="&#xde;" horiz-adv-x="1366" d="M156 0v1493h307v-246h352q171 0 267 -50q215 -113 215 -415q0 -251 -152 -389q-115 -106 -299 -106h-383v-287h-307zM463 543h286q136 0 192 66q49 56 49 158t-49 159q-56 65 -192 65h-286v-448z" />
<glyph unicode="&#xdf;" horiz-adv-x="1251" d="M137 0v1061q0 132 35 213q54 124 209 179q110 40 239 40q186 0 319 -90q149 -103 149 -284q0 -110 -58 -190q-40 -56 -120 -86q94 -20 162 -84q59 -56 82 -119q23 -66 23 -156q0 -183 -80 -319q-59 -101 -164 -153q-94 -47 -201 -47q-62 0 -149 13v230h26q126 1 190 52 q91 71 91 201q0 153 -120 220q-61 34 -161 34q-12 0 -26 -1v195q64 0 106 15q112 41 112 166q0 82 -58 129q-51 42 -141 42q-78 0 -125 -37q-53 -42 -53 -123v-1101h-287z" />
<glyph unicode="&#xe0;" d="M55 285q0 293 327 349l114 19q106 17 128.5 22.5t52.5 21.5q49 26 49 84q0 112 -167 112q-130 0 -171 -55q-23 -31 -30 -97h-277q27 383 472 383q454 0 454 -341v-613q0 -51 21 -83q15 -25 45 -52v-35h-313q-20 27 -26 51q-5 20 -6 59q-152 -157 -337 -157 q-158 0 -257 105q-79 83 -79 227zM270 1550h258l143 -308h-143zM342 317q0 -60 39 -95q41 -38 117 -38q104 0 166 65t62 194v78q-38 -17 -120 -34l-100 -19q-87 -17 -121 -48q-43 -39 -43 -103z" />
<glyph unicode="&#xe1;" d="M55 285q0 293 327 349l114 19q106 17 128.5 22.5t52.5 21.5q49 26 49 84q0 112 -167 112q-130 0 -171 -55q-23 -31 -30 -97h-277q27 383 472 383q454 0 454 -341v-613q0 -51 21 -83q15 -25 45 -52v-35h-313q-20 27 -26 51q-5 20 -6 59q-152 -157 -337 -157 q-158 0 -257 105q-79 83 -79 227zM342 317q0 -60 39 -95q41 -38 117 -38q104 0 166 65t62 194v78q-38 -17 -120 -34l-100 -19q-87 -17 -121 -48q-43 -39 -43 -103zM440 1242l143 308h258l-258 -308h-143z" />
<glyph unicode="&#xe2;" d="M55 285q0 293 327 349l114 19q106 17 128.5 22.5t52.5 21.5q49 26 49 84q0 112 -167 112q-130 0 -171 -55q-23 -31 -30 -97h-277q27 383 472 383q454 0 454 -341v-613q0 -51 21 -83q15 -25 45 -52v-35h-313q-20 27 -26 51q-5 20 -6 59q-152 -157 -337 -157 q-158 0 -257 105q-79 83 -79 227zM231 1242l220 308h220l211 -308h-159l-168 205l-168 -205h-156zM342 317q0 -60 39 -95q41 -38 117 -38q104 0 166 65t62 194v78q-38 -17 -120 -34l-100 -19q-87 -17 -121 -48q-43 -39 -43 -103z" />
<glyph unicode="&#xe3;" d="M55 285q0 293 327 349l114 19q106 17 128.5 22.5t52.5 21.5q49 26 49 84q0 112 -167 112q-130 0 -171 -55q-23 -31 -30 -97h-277q27 383 472 383q454 0 454 -341v-613q0 -51 21 -83q15 -25 45 -52v-35h-313q-20 27 -26 51q-5 20 -6 59q-152 -157 -337 -157 q-158 0 -257 105q-79 83 -79 227zM195 1271q4 94 43 166q48 88 150 88q41 0 114 -26l146 -52q38 -13 70 -13q62 0 74 99h128q-14 -261 -194 -261q-45 0 -113 25l-145 54q-36 13 -63 13q-67 0 -82 -93h-128zM342 317q0 -60 39 -95q41 -38 117 -38q104 0 166 65t62 194v78 q-38 -17 -120 -34l-100 -19q-87 -17 -121 -48q-43 -39 -43 -103z" />
<glyph unicode="&#xe4;" d="M55 285q0 293 327 349l114 19q106 17 128.5 22.5t52.5 21.5q49 26 49 84q0 112 -167 112q-130 0 -171 -55q-23 -31 -30 -97h-277q27 383 472 383q454 0 454 -341v-613q0 -51 21 -83q15 -25 45 -52v-35h-313q-20 27 -26 51q-5 20 -6 59q-152 -157 -337 -157 q-158 0 -257 105q-79 83 -79 227zM254 1271v250h225v-250h-225zM342 317q0 -60 39 -95q41 -38 117 -38q104 0 166 65t62 194v78q-38 -17 -120 -34l-100 -19q-87 -17 -121 -48q-43 -39 -43 -103zM635 1271v250h225v-250h-225z" />
<glyph unicode="&#xe5;" d="M55 285q0 293 327 349l114 19q106 17 128.5 22.5t52.5 21.5q49 26 49 84q0 112 -167 112q-130 0 -171 -55q-23 -31 -30 -97h-277q27 383 472 383q454 0 454 -341v-613q0 -51 21 -83q15 -25 45 -52v-35h-313q-20 27 -26 51q-5 20 -6 59q-152 -157 -337 -157 q-158 0 -257 105q-79 83 -79 227zM342 317q0 -60 39 -95q41 -38 117 -38q104 0 166 65t62 194v78q-38 -17 -120 -34l-100 -19q-87 -17 -121 -48q-43 -39 -43 -103zM373 1392q0 77 54 131q53 54 135 54q73 0 125 -54q54 -55 54 -130q0 -77 -54 -131t-130 -54q-77 0 -130 54 q-54 54 -54 130zM471 1393q0 -36 26 -61q25 -26 61 -26t60 26q25 25 25 61t-25 61t-60 25q-36 0 -61 -25q-26 -25 -26 -61z" />
<glyph unicode="&#xe6;" horiz-adv-x="1821" d="M54 290q0 293 327 349l114 19q106 18 129 23.5t52 21.5q49 26 49 82q0 108 -175 108q-118 0 -162 -57q-24 -30 -31 -95h-268q3 191 119.5 287t345.5 96q243 0 360 -102q126 102 317 102q226 0 366 -140q158 -156 158 -469q0 -21 -2 -52h-742q1 -127 41 -190 q65 -101 193 -101q91 0 159 58q40 35 55 82h283q-40 -135 -142 -225q-151 -134 -371 -134q-277 0 -410 213q-65 -77 -128 -122q-125 -91 -293 -91t-266 107q-78 85 -78 230zM341 318q0 -60 39 -95q41 -38 117 -38q105 0 166 61q62 64 62 197v78q-43 -27 -120 -39l-100 -14 q-164 -24 -164 -150zM1015 653h441q-9 105 -46 160q-61 92 -176 92q-129 0 -185 -109q-28 -55 -34 -143z" />
<glyph unicode="&#xe7;" d="M70 530q0 319 174 477q130 117 349 117q268 0 397 -189q68 -101 79 -242h-274q-21 93 -53 133q-53 67 -152 67q-127 0 -177 -94q-56 -103 -56 -266q0 -190 77 -283q56 -66 158 -66q104 0 158 80q25 38 45 118h274q-14 -195 -159 -321q-128 -107 -313 -108l-36 -81 q42 13 86 13q69 0 109 -35q46 -41 46 -110q0 -94 -68 -142q-69 -49 -194 -49q-117 0 -285 59l39 106q141 -63 214 -63q34 0 63 13q54 25 54 72q0 29 -24 49q-28 23 -80 23q-51 0 -101 -26l89 175q-166 21 -275 120q-164 151 -164 453z" />
<glyph unicode="&#xe8;" d="M44 523q0 269 128 431q63 80 166 125q101 45 218 45q219 0 362 -140q158 -156 158 -468q0 -22 -2 -53h-742q5 -138 42 -195q61 -96 188 -96q97 0 161 57q36 32 56 83h283q-39 -135 -141 -225q-152 -134 -370 -134q-225 0 -362 142q-145 149 -145 428zM273 1550h258 l143 -308h-143zM335 653h441q-8 104 -45 159q-63 93 -178 93q-190 0 -218 -252z" />
<glyph unicode="&#xe9;" d="M44 523q0 269 128 431q63 80 166 125q101 45 218 45q219 0 362 -140q158 -156 158 -468q0 -22 -2 -53h-742q5 -138 42 -195q61 -96 188 -96q97 0 161 57q36 32 56 83h283q-39 -135 -141 -225q-152 -134 -370 -134q-225 0 -362 142q-145 149 -145 428zM335 653h441 q-8 104 -45 159q-63 93 -178 93q-190 0 -218 -252zM456 1242l143 308h258l-258 -308h-143z" />
<glyph unicode="&#xea;" d="M44 523q0 269 128 431q63 80 166 125q101 45 218 45q219 0 362 -140q158 -156 158 -468q0 -22 -2 -53h-742q5 -138 42 -195q61 -96 188 -96q97 0 161 57q36 32 56 83h283q-39 -135 -141 -225q-152 -134 -370 -134q-225 0 -362 142q-145 149 -145 428zM248 1242l220 308 h220l211 -308h-159l-168 205l-168 -205h-156zM335 653h441q-8 104 -45 159q-63 93 -178 93q-190 0 -218 -252z" />
<glyph unicode="&#xeb;" d="M44 523q0 269 128 431q63 80 166 125q101 45 218 45q219 0 362 -140q158 -156 158 -468q0 -22 -2 -53h-742q5 -138 42 -195q61 -96 188 -96q97 0 161 57q36 32 56 83h283q-39 -135 -141 -225q-152 -134 -370 -134q-225 0 -362 142q-145 149 -145 428zM271 1271v250h225 v-250h-225zM335 653h441q-8 104 -45 159q-63 93 -178 93q-190 0 -218 -252zM652 1271v250h225v-250h-225z" />
<glyph unicode="&#xec;" horiz-adv-x="569" d="M-20 1550h258l143 -308h-143zM138 0v1106h287v-1106h-287z" />
<glyph unicode="&#xed;" horiz-adv-x="569" d="M137 0v1106h287v-1106h-287zM192 1242l143 308h258l-258 -308h-143z" />
<glyph unicode="&#xee;" horiz-adv-x="569" d="M-39 1242l220 308h220l211 -308h-159l-168 205l-168 -205h-156zM137 0v1106h287v-1106h-287z" />
<glyph unicode="&#xef;" horiz-adv-x="569" d="M-18 1271v250h225v-250h-225zM138 0v1106h287v-1106h-287zM363 1271v250h225v-250h-225z" />
<glyph unicode="&#xf0;" horiz-adv-x="1251" d="M72 543q0 336 231 476q123 75 258 75q69 0 175 -39q-81 130 -195 197l-157 -95l-88 76l144 89q-65 40 -184 99l137 97q74 -28 118 -53q64 -36 91 -49l179 107l103 -69l-172 -102q187 -126 291 -271q163 -229 163 -530q0 -266 -126 -419q-147 -179 -421 -179 q-275 0 -421 179q-126 153 -126 411zM361 531q0 -151 64 -244q32 -48 84.5 -75.5t109.5 -27.5q56 0 108 27.5t85 75.5q64 93 64 243q0 154 -64 246q-72 103 -197 103q-55 0 -106.5 -28t-83.5 -75q-64 -92 -64 -245z" />
<glyph unicode="&#xf1;" horiz-adv-x="1251" d="M129 0v1106h287v-161q53 81 111 119q93 60 220 60q158 0 258 -84q113 -96 113 -298v-742h-287v682q0 198 -184 198q-95 0 -156 -48q-75 -61 -75 -168v-664h-287zM254 1271q4 94 43 166q48 88 150 88q41 0 114 -26l146 -52q38 -13 70 -13q62 0 74 99h128 q-14 -261 -194 -261q-45 0 -113 25l-145 54q-36 13 -63 13q-67 0 -82 -93h-128z" />
<glyph unicode="&#xf2;" horiz-adv-x="1251" d="M72 536q0 259 126 409q149 179 429 179q264 0 413 -179q126 -150 126 -407q0 -253 -126 -406q-147 -179 -421 -179q-275 0 -421 179q-126 153 -126 404zM339 1550h258l143 -308h-143zM359 538q0 -152 67 -251q31 -47 83.5 -75t109.5 -28t109.5 28t83.5 75q67 100 67 250 q0 154 -67 253q-69 103 -196 103q-55 0 -107 -28t-83 -75q-67 -99 -67 -252z" />
<glyph unicode="&#xf3;" horiz-adv-x="1251" d="M72 536q0 259 126 409q149 179 429 179q264 0 413 -179q126 -150 126 -407q0 -253 -126 -406q-147 -179 -421 -179q-275 0 -421 179q-126 153 -126 404zM359 538q0 -152 67 -251q31 -47 83.5 -75t109.5 -28t109.5 28t83.5 75q67 100 67 250q0 154 -67 253 q-69 103 -196 103q-55 0 -107 -28t-83 -75q-67 -99 -67 -252zM501 1242l143 308h258l-258 -308h-143z" />
<glyph unicode="&#xf4;" horiz-adv-x="1251" d="M72 536q0 259 126 409q149 179 429 179q264 0 413 -179q126 -150 126 -407q0 -253 -126 -406q-147 -179 -421 -179q-275 0 -421 179q-126 153 -126 404zM293 1242l220 308h220l211 -308h-159l-168 205l-168 -205h-156zM359 538q0 -152 67 -251q31 -47 83.5 -75t109.5 -28 t109.5 28t83.5 75q67 100 67 250q0 154 -67 253q-69 103 -196 103q-55 0 -107 -28t-83 -75q-67 -99 -67 -252z" />
<glyph unicode="&#xf5;" horiz-adv-x="1251" d="M72 536q0 259 126 409q149 179 429 179q264 0 413 -179q126 -150 126 -407q0 -253 -126 -406q-147 -179 -421 -179q-275 0 -421 179q-126 153 -126 404zM263 1271q4 94 43 166q48 88 150 88q41 0 114 -26l146 -52q38 -13 70 -13q62 0 74 99h128q-14 -261 -194 -261 q-45 0 -113 25l-145 54q-36 13 -63 13q-67 0 -82 -93h-128zM359 538q0 -152 67 -251q31 -47 83.5 -75t109.5 -28t109.5 28t83.5 75q67 100 67 250q0 154 -67 253q-69 103 -196 103q-55 0 -107 -28t-83 -75q-67 -99 -67 -252z" />
<glyph unicode="&#xf6;" horiz-adv-x="1251" d="M72 536q0 259 126 409q149 179 429 179q264 0 413 -179q126 -150 126 -407q0 -253 -126 -406q-147 -179 -421 -179q-275 0 -421 179q-126 153 -126 404zM316 1271v250h225v-250h-225zM359 538q0 -152 67 -251q31 -47 83.5 -75t109.5 -28t109.5 28t83.5 75q67 100 67 250 q0 154 -67 253q-69 103 -196 103q-55 0 -107 -28t-83 -75q-67 -99 -67 -252zM697 1271v250h225v-250h-225z" />
<glyph unicode="&#xf7;" horiz-adv-x="1196" d="M102 352v244h991v-244h-991zM471 -23v252h254v-252h-254zM471 719v252h254v-252h-254z" />
<glyph unicode="&#xf8;" horiz-adv-x="1251" d="M23 5l155 157q-104 149 -104 376q0 254 126 407q147 179 424 179q218 0 373 -127l141 143l87 -83l-148 -150q97 -150 97 -369q0 -255 -127 -406q-149 -179 -419 -179q-181 0 -313 78q-30 18 -56 42l-149 -151zM361 544q0 -95 29 -166l413 421q-81 95 -182 95 q-56 0 -108.5 -28t-84.5 -75q-67 -100 -67 -247zM452 270q73 -86 176 -86q55 0 107.5 28.5t83.5 74.5q68 100 68 245q0 84 -25 156z" />
<glyph unicode="&#xf9;" horiz-adv-x="1251" d="M119 336v770h287v-710q0 -199 184 -199q95 0 156 48q75 61 75 169v692h287v-1106h-287v132q-53 -81 -111 -119q-94 -60 -220 -60q-158 0 -258 84q-113 96 -113 299zM334 1550h258l143 -308h-143z" />
<glyph unicode="&#xfa;" horiz-adv-x="1251" d="M119 336v770h287v-710q0 -199 184 -199q95 0 156 48q75 61 75 169v692h287v-1106h-287v132q-53 -81 -111 -119q-94 -60 -220 -60q-158 0 -258 84q-113 96 -113 299zM496 1242l143 308h258l-258 -308h-143z" />
<glyph unicode="&#xfb;" horiz-adv-x="1251" d="M119 336v770h287v-710q0 -199 184 -199q95 0 156 48q75 61 75 169v692h287v-1106h-287v132q-53 -81 -111 -119q-94 -60 -220 -60q-158 0 -258 84q-113 96 -113 299zM288 1242l220 308h220l211 -308h-159l-168 205l-168 -205h-156z" />
<glyph unicode="&#xfc;" horiz-adv-x="1251" d="M119 336v770h287v-710q0 -199 184 -199q95 0 156 48q75 61 75 169v692h287v-1106h-287v132q-53 -81 -111 -119q-94 -60 -220 -60q-158 0 -258 84q-113 96 -113 299zM310 1271v250h225v-250h-225zM691 1271v250h225v-250h-225z" />
<glyph unicode="&#xfd;" d="M18 1106h315l245 -806l229 806h295l-456 -1307q-40 -115 -77 -156q-84 -92 -290 -92q-47 0 -103 9v216q47 -13 76 -13q107 0 156 90q22 42 22 102zM442 1242l143 308h258l-258 -308h-143z" />
<glyph unicode="&#xfe;" horiz-adv-x="1251" d="M119 -446v1939h287v-550q102 182 307 182q140 0 258 -91q106 -83 161 -238q44 -122 44 -258q0 -240 -122 -409q-58 -80 -150 -128t-191 -48q-205 0 -307 178v-577h-287zM405 538q0 -153 68 -250q65 -95 174 -95t174 95q68 98 68 248q0 156 -68 253q-66 96 -177 96 q-106 0 -171 -96q-68 -98 -68 -251z" />
<glyph unicode="&#xff;" d="M18 1106h315l245 -806l229 806h295l-456 -1307q-40 -115 -77 -156q-84 -92 -290 -92q-47 0 -103 9v216q47 -13 76 -13q107 0 156 90q22 42 22 102zM257 1271v250h225v-250h-225zM638 1271v250h225v-250h-225z" />
<glyph unicode="&#x152;" horiz-adv-x="2048" d="M57 735q0 420 248 645q152 138 368 138q120 0 208 -49q48 -27 101 -82v106h964v-256h-668v-338h611v-256h-611v-387h708v-256h-1004v121q-54 -71 -101 -105q-89 -63 -215 -63q-208 0 -361 138q-248 223 -248 644zM364 736q0 -211 89 -362q44 -76 116 -117.5t159 -41.5 q158 0 243 149v743q-84 149 -242 149q-183 0 -276 -159q-89 -151 -89 -361z" />
<glyph unicode="&#x153;" horiz-adv-x="1933" d="M47 538q0 254 126 407q146 179 420 179q250 0 400 -154q133 154 368 154q223 0 365 -140q158 -156 158 -471q0 -20 -1 -50h-742q3 -128 42 -192q61 -99 191 -99q93 0 159 58q41 35 55 82h283q-39 -135 -141 -225q-151 -134 -369 -134q-230 0 -369 154 q-154 -154 -398 -154q-275 0 -421 179q-126 153 -126 406zM334 538q0 -152 67 -251q31 -47 83.5 -75t109.5 -28t109.5 28t83.5 75q67 99 67 249q0 154 -67 253q-69 103 -196 103q-55 0 -107 -28t-83 -75q-67 -99 -67 -251zM1144 653h441q-11 107 -47 159q-29 43 -76 68 t-99 25q-58 0 -107.5 -30t-75.5 -80q-26 -51 -36 -142z" />
<glyph unicode="&#x178;" horiz-adv-x="1366" d="M55 1493h342l306 -659l284 659h343l-472 -940v-553h-307v553zM397 1638v250h225v-250h-225zM778 1638v250h225v-250h-225z" />
<glyph unicode="&#x2c6;" horiz-adv-x="682" d="M16 1242l220 308h220l211 -308h-159l-168 205l-168 -205h-156z" />
<glyph unicode="&#x2dc;" horiz-adv-x="682" d="M-18 1271q4 94 43 166q48 88 150 88q41 0 114 -26l146 -52q38 -13 70 -13q62 0 74 99h128q-14 -261 -194 -261q-45 0 -113 25l-145 54q-36 13 -63 13q-67 0 -82 -93h-128z" />
<glyph unicode="&#x2000;" horiz-adv-x="972" />
<glyph unicode="&#x2001;" horiz-adv-x="1944" />
<glyph unicode="&#x2002;" horiz-adv-x="972" />
<glyph unicode="&#x2003;" horiz-adv-x="1944" />
<glyph unicode="&#x2004;" horiz-adv-x="648" />
<glyph unicode="&#x2005;" horiz-adv-x="486" />
<glyph unicode="&#x2006;" horiz-adv-x="324" />
<glyph unicode="&#x2007;" horiz-adv-x="324" />
<glyph unicode="&#x2008;" horiz-adv-x="243" />
<glyph unicode="&#x2009;" horiz-adv-x="388" />
<glyph unicode="&#x200a;" horiz-adv-x="108" />
<glyph unicode="&#x2010;" horiz-adv-x="682" d="M53 424v276h557v-276h-557z" />
<glyph unicode="&#x2011;" horiz-adv-x="682" d="M53 424v276h557v-276h-557z" />
<glyph unicode="&#x2012;" horiz-adv-x="682" d="M53 424v276h557v-276h-557z" />
<glyph unicode="&#x2013;" d="M-18 424v213h1159v-213h-1159z" />
<glyph unicode="&#x2014;" horiz-adv-x="2048" d="M-14 424v213h2068v-213h-2068z" />
<glyph unicode="&#x2018;" horiz-adv-x="569" d="M137 961v223q1 112 38 176q47 78 147 115q46 16 91 18v-94q-170 -31 -164 -182h164v-256h-276z" />
<glyph unicode="&#x2019;" horiz-adv-x="569" d="M135 961v94q170 30 164 182h-164v256h276v-223q-1 -112 -38 -176q-47 -79 -147 -115q-46 -16 -91 -18z" />
<glyph unicode="&#x201a;" horiz-adv-x="569" d="M135 0v256h276v-223q-1 -112 -38 -176q-47 -79 -147 -115q-46 -16 -91 -18v94q170 30 164 182h-164z" />
<glyph unicode="&#x201c;" horiz-adv-x="1024" d="M145 961v223q1 112 38 176q47 78 147 115q46 16 91 18v-94q-170 -31 -164 -182h164v-256h-276zM610 961v223q1 112 38 176q47 78 147 115q46 16 91 18v-94q-170 -31 -164 -182h164v-256h-276z" />
<glyph unicode="&#x201d;" horiz-adv-x="1024" d="M150 961v94q170 30 164 182h-164v256h276v-223q-1 -112 -38 -176q-47 -79 -147 -115q-46 -16 -91 -18zM626 961v94q170 31 164 182h-164v256h276v-223q-1 -112 -38 -176q-47 -79 -147 -115q-46 -16 -91 -18z" />
<glyph unicode="&#x201e;" horiz-adv-x="1024" d="M147 0v256h276v-223q-1 -112 -38 -176q-47 -79 -147 -115q-46 -16 -91 -18v94q170 30 164 182h-164zM608 0v256h276v-223q-1 -112 -38 -176q-47 -79 -147 -115q-47 -16 -91 -18v94q170 31 164 182h-164z" />
<glyph unicode="&#x2022;" horiz-adv-x="717" d="M102 614q0 108 75 181q77 75 184 75q103 0 178 -75q75 -74 75 -181q0 -106 -75 -181t-181 -75t-181 75t-75 181z" />
<glyph unicode="&#x2026;" horiz-adv-x="2048" d="M188 0v299h307v-299h-307zM870 0v299h307v-299h-307zM1552 0v299h307v-299h-307z" />
<glyph unicode="&#x202f;" horiz-adv-x="388" />
<glyph unicode="&#x2039;" horiz-adv-x="682" d="M170 447v233l342 305v-240l-207 -182l207 -182v-234z" />
<glyph unicode="&#x203a;" horiz-adv-x="682" d="M164 147v240l207 182l-207 182v234l342 -300v-233z" />
<glyph unicode="&#x205f;" horiz-adv-x="486" />
<glyph unicode="&#x2122;" horiz-adv-x="2048" d="M145 1333v160h748v-160h-272v-773h-195v773h-281zM994 560v933h281l175 -717l172 717h280v-933h-186v715l-170 -715h-193l-173 715v-715h-186z" />
<glyph unicode="&#x25fc;" horiz-adv-x="1105" d="M0 0v1105h1105v-1105h-1105z" />
</font>
</defs>
</svg>
